<svg width="335" height="303" viewBox="0 0 335 303" fill="none" xmlns="http://www.w3.org/2000/svg">
<g clip-path="url(#clip0_2152_297529)">
<path d="M169.4 76.4L129.6 0.7L167.9 20.2L204.9 0L169.4 76.4Z" fill="#5EE9B5"/>
<path d="M106.6 49.5L58.2998 29.8L83.7998 23.9L93.1998 0L106.6 49.5Z" fill="#5EE9B5"/>
<path d="M95.5 116.499L10 113.199L46.1 89.7992L47.1 47.6992L95.5 116.499Z" fill="#5EE9B5"/>
<path d="M241.1 120.4L286.8 48L289 90.9L325 112.8L241.1 120.4Z" fill="#5EE9B5"/>
<path d="M165.2 225.699L205.1 301.499L166.8 281.999L129.8 302.199L165.2 225.699Z" fill="#5EE9B5"/>
<path d="M228.1 252.602L276.4 272.302L250.9 278.202L241.5 302.102L228.1 252.602Z" fill="#5EE9B5"/>
<path d="M228.1 252.602L276.4 272.302L250.9 278.202L241.5 302.102L228.1 252.602Z" fill="#5EE9B5"/>
<path d="M106.6 49.5L58.2998 29.8L83.7998 23.9L93.1998 0L106.6 49.5Z" fill="#5EE9B5"/>
<path d="M285.6 153.798L328 123.398L319.4 148.098L334.7 168.798L285.6 153.798Z" fill="#5EE9B5"/>
<path d="M49.1 148.398L6.6 178.798L15.2 154.098L0 133.398L49.1 148.398Z" fill="#5EE9B5"/>
<path d="M233.7 53.1L231.2 1L247.3 21.6L272.9 20L233.7 53.1Z" fill="#5EE9B5"/>
<path d="M101 249L103.5 301.1L87.3998 280.5L61.7998 282.1L101 249Z" fill="#5EE9B5"/>
<path d="M106.6 49.5L58.2998 29.8L83.7998 23.9L93.1998 0L106.6 49.5Z" fill="#5EE9B5"/>
<path d="M228.1 252.602L276.4 272.302L250.9 278.202L241.5 302.102L228.1 252.602Z" fill="#5EE9B5"/>
<path d="M239.1 185.699L324.7 188.999L288.6 212.399L287.6 254.499L239.1 185.699Z" fill="#5EE9B5"/>
<path d="M93.6002 181.801L47.9002 254.201L45.7002 211.301L9.7002 189.401L93.6002 181.801Z" fill="#5EE9B5"/>
</g>
<defs>
<clipPath id="clip0_2152_297529">
<rect width="334.7" height="302.1" fill="white"/>
</clipPath>
</defs>
</svg>
