<?xml version="1.0" encoding="utf-8"?>
<!-- Generator: Adobe Illustrator 24.1.2, SVG Export Plug-In . SVG Version: 6.00 Build 0)  -->
<svg version="1.1" id="Layer_1" xmlns="http://www.w3.org/2000/svg" xmlns:xlink="http://www.w3.org/1999/xlink" x="0px" y="0px"
	 viewBox="0 0 712.3 624.5" style="enable-background:new 0 0 712.3 624.5;" xml:space="preserve">
<style type="text/css">
	.st0{fill:#5EE9B5;}
</style>
<g>
	<g>
		<path class="st0" d="M394.8,104.8l-52.8-81.6L386.5,52l36.5-8.1L394.8,104.8z"/>
	</g>
	<g>
		<path class="st0" d="M400.9,156.9l-40.4-62.3l33.9,21.1l28-7.8L400.9,156.9z"/>
	</g>
	<g>
		<path class="st0" d="M407.7,214.1l-31.8-49l26.6,15.8l22.1-7.5L407.7,214.1z"/>
	</g>
	<g>
		<path class="st0" d="M440.6,504.9l60.3,92.2l-49.4-20.7L407.3,608L440.6,504.9z"/>
	</g>
	<g>
		<path class="st0" d="M324.2,99.3L240.3,24l54,18.2l30.2-21.8L324.2,99.3z"/>
	</g>
	<g>
		<path class="st0" d="M511.4,489.8l77.5,63.6l-45.6-2.6l-25.1,41.9L511.4,489.8z"/>
	</g>
	<g>
		<path class="st0" d="M257.4,117.2l-112.2-57l59.2,2.4l18.4-35.7L257.4,117.2z"/>
	</g>
	<g>
		<path class="st0" d="M564,453l81.5,33.5l-37,12.1l-7.3,45.4L564,453z"/>
	</g>
	<g>
		<path class="st0" d="M204.1,160L73.1,134.8l56.8-17.9l0.2-47.5L204.1,160z"/>
	</g>
	<g>
		<path class="st0" d="M595.1,401.7l75.9,5.4l-26.1,23.1l7.5,43.9L595.1,401.7z"/>
	</g>
	<g>
		<path class="st0" d="M174.7,225.1l-132.4,18l44-39.4l-22.9-53.1L174.7,225.1z"/>
	</g>
	<g>
		<path class="st0" d="M604.6,342.5l63.9-19.1L654.1,354l19,39.3L604.6,342.5z"/>
	</g>
	<g>
		<path class="st0" d="M177.2,304.3L66.3,368.4l21.3-56.1l-46.5-48.6L177.2,304.3z"/>
	</g>
	<g>
		<path class="st0" d="M593.8,281.2l47.4-39.9l-2.6,35.4l27.5,32.6L593.8,281.2z"/>
	</g>
	<g>
		<path class="st0" d="M213.8,384.5L144.6,485l-6.1-62.2l-63.6-32.9L213.8,384.5z"/>
	</g>
	<g>
		<path class="st0" d="M564.7,222.4l27.2-57l9.3,37.8l33.6,24.5L564.7,222.4z"/>
	</g>
	<g>
		<path class="st0" d="M278.6,450.9l-18.5,117.4l-30.2-55.7l-68.4-9.9L278.6,450.9z"/>
	</g>
	<g>
		<path class="st0" d="M519.7,170.7l3.7-70.3l21.3,37.8l37.3,15.1L519.7,170.7z"/>
	</g>
	<g>
		<path class="st0" d="M359,492.6l27.6,112.8l-45.1-40L281.1,579L359,492.6z"/>
	</g>
	<g>
		<path class="st0" d="M461.7,130l-23.1-79.1L471.8,86l38.4,4.3L461.7,130z"/>
	</g>
	<g>
		<path class="st0" d="M432.9,439l44.3,67.9l-36.5-16.7l-32.2,20.3L432.9,439z"/>
	</g>
	<g>
		<path class="st0" d="M350.9,154.8l-62.3-55.3l39.7,12l22.2-18.2L350.9,154.8z"/>
	</g>
	<g>
		<path class="st0" d="M483,430.8l58.7,49l-35.1-3.6l-19.5,29.1L483,430.8z"/>
	</g>
	<g>
		<path class="st0" d="M305.2,169.4l-80.3-39.8l41.6-0.1l12.4-27.9L305.2,169.4z"/>
	</g>
	<g>
		<path class="st0" d="M521.6,406.8l63.8,27.2l-29.7,7.9l-6.5,33.2L521.6,406.8z"/>
	</g>
	<g>
		<path class="st0" d="M270.3,200.8l-90.4-15.9l38-14.4l-1-35.3L270.3,200.8z"/>
	</g>
	<g>
		<path class="st0" d="M545.6,371.2l61.2,5.5l-21.8,17.1l5.1,33.4L545.6,371.2z"/>
	</g>
	<g>
		<path class="st0" d="M252.2,246.2l-88.3,13.9l28-28.5l-16.8-37.9L252.2,246.2z"/>
	</g>
	<g>
		<path class="st0" d="M553.8,328.7l52.6-14.4l-12.6,23.7l14.6,30.6L553.8,328.7z"/>
	</g>
	<g>
		<path class="st0" d="M255.3,299.9L183,344.2l12.5-38.9l-31.9-34.1L255.3,299.9z"/>
	</g>
	<g>
		<path class="st0" d="M546.6,283.9l39.6-31.6l-2.9,28l22,25.7L546.6,283.9z"/>
	</g>
	<g>
		<path class="st0" d="M280.2,353.7l-44.6,68.4l-5.4-42.8l-42.7-23.6L280.2,353.7z"/>
	</g>
	<g>
		<path class="st0" d="M525.4,240.7l23-45.7l6.9,30l27.1,19.1L525.4,240.7z"/>
	</g>
	<g>
		<path class="st0" d="M323.2,398.8l-11.3,80.8l-21.4-39.2l-46.2-8.7L323.2,398.8z"/>
	</g>
	<g>
		<path class="st0" d="M492.1,202.8l3.7-56.1l16.7,29.7l30,11.2L492.1,202.8z"/>
	</g>
	<g>
		<path class="st0" d="M377,428.4l20.2,79.9l-32.2-29.5l-42.1,7.1L377,428.4z"/>
	</g>
	<g>
		<path class="st0" d="M449.4,173.8l-17.7-62.1l25.9,26.8l30.4,2.2L449.4,173.8z"/>
	</g>
	<g>
		<path class="st0" d="M425,372.3l33.5,51.4l-27.7-13.7l-24.3,13.4L425,372.3z"/>
	</g>
	<g>
		<path class="st0" d="M360.5,220.1l-57-32.4l30.6,1.1l10.9-20.8L360.5,220.1z"/>
	</g>
	<g>
		<path class="st0" d="M470.8,360.8l50.6,26.9l-25.5,2.9l-8.3,24.2L470.8,360.8z"/>
	</g>
	<g>
		<path class="st0" d="M330.8,253.2l-63.9,0.3l22.9-16.8l-7.1-27.9L330.8,253.2z"/>
	</g>
	<g>
		<path class="st0" d="M494.6,325.8l48.3-2.9l-15.1,16.1l7.7,25.6L494.6,325.8z"/>
	</g>
	<g>
		<path class="st0" d="M332.3,302.7l-44.7,36.5l4.5-29.1l-24.9-23.3L332.3,302.7z"/>
	</g>
	<g>
		<path class="st0" d="M490.4,280.7l30.9-29.1l-1.1,23.5l19.4,19.6L490.4,280.7z"/>
	</g>
	<g>
		<path class="st0" d="M366,348.5l-7.1,57.5l-15.7-28.5l-32.6-7.4L366,348.5z"/>
	</g>
	<g>
		<path class="st0" d="M460.9,239.7l3.8-46.3l13.4,24.1l24.8,8.5L460.9,239.7z"/>
	</g>
</g>
</svg>
