<svg width="515" height="479" viewBox="0 0 515 479" fill="none" xmlns="http://www.w3.org/2000/svg">
<path d="M288.09 68.7444L245.084 2.28125L281.329 25.7388L311.058 19.1414L288.09 68.7444Z" fill="#5EE9B5"/>
<path d="M293.058 111.179L260.152 60.4355L287.764 77.6215L310.57 71.2684L293.058 111.179Z" fill="#5EE9B5"/>
<path d="M298.596 157.768L272.695 117.857L294.361 130.727L312.361 124.618L298.596 157.768Z" fill="#5EE9B5"/>
<path d="M325.392 394.625L374.507 469.722L334.27 452.862L298.27 478.6L325.392 394.625Z" fill="#5EE9B5"/>
<path d="M230.585 64.264L162.248 2.9322L206.231 17.7561L230.829 0L230.585 64.264Z" fill="#5EE9B5"/>
<path d="M383.061 382.326L446.184 434.128L409.043 432.011L388.599 466.138L383.061 382.326Z" fill="#5EE9B5"/>
<path d="M176.176 78.8442L84.7891 32.4178L133.007 34.3726L147.994 5.29492L176.176 78.8442Z" fill="#5EE9B5"/>
<path d="M425.902 352.352L492.284 379.637L462.148 389.493L456.202 426.471L425.902 352.352Z" fill="#5EE9B5"/>
<path d="M132.764 113.704L26.0645 93.1784L72.328 78.5989L72.4909 39.9102L132.764 113.704Z" fill="#5EE9B5"/>
<path d="M451.234 310.57L513.055 314.969L491.796 333.784L497.905 369.54L451.234 310.57Z" fill="#5EE9B5"/>
<path d="M108.818 166.727L0.978516 181.388L36.8165 149.297L18.1645 106.047L108.818 166.727Z" fill="#5EE9B5"/>
<path d="M458.971 262.35L511.017 246.793L499.288 271.717L514.764 303.726L458.971 262.35Z" fill="#5EE9B5"/>
<path d="M110.853 231.237L20.5254 283.446L37.8742 237.753L0 198.168L110.853 231.237Z" fill="#5EE9B5"/>
<path d="M450.174 212.422L488.781 179.924L486.663 208.757L509.062 235.31L450.174 212.422Z" fill="#5EE9B5"/>
<path d="M140.665 296.559L84.3019 378.416L79.3334 327.754L27.5312 300.957L140.665 296.559Z" fill="#5EE9B5"/>
<path d="M426.473 164.528L448.627 118.102L456.202 148.89L483.569 168.845L426.473 164.528Z" fill="#5EE9B5"/>
<path d="M193.444 350.643L178.376 446.265L153.778 400.897L98.0664 392.834L193.444 350.643Z" fill="#5EE9B5"/>
<path d="M389.82 122.419L392.834 65.1602L410.183 95.9482L440.564 108.247L389.82 122.419Z" fill="#5EE9B5"/>
<path d="M258.93 384.605L281.41 476.481L244.676 443.901L195.48 454.978L258.93 384.605Z" fill="#5EE9B5"/>
<path d="M342.579 89.2687L323.764 24.8418L350.805 53.4307L382.082 56.9331L342.579 89.2687Z" fill="#5EE9B5"/>
<path d="M319.122 340.949L355.204 396.254L325.475 382.652L299.248 399.186L319.122 340.949Z" fill="#5EE9B5"/>
<path d="M252.333 109.469L201.59 64.4268L233.925 74.2008L252.007 59.377L252.333 109.469Z" fill="#5EE9B5"/>
<path d="M359.928 334.271L407.739 374.182L379.15 371.25L363.267 394.952L359.928 334.271Z" fill="#5EE9B5"/>
<path d="M215.111 121.36L149.707 88.9427L183.59 88.8613L193.69 66.1367L215.111 121.36Z" fill="#5EE9B5"/>
<path d="M391.367 314.723L443.332 336.877L419.142 343.312L413.847 370.353L391.367 314.723Z" fill="#5EE9B5"/>
<path d="M186.685 146.937L113.055 133.986L144.006 122.258L143.191 93.5059L186.685 146.937Z" fill="#5EE9B5"/>
<path d="M410.916 285.727L460.763 290.206L443.007 304.134L447.161 331.339L410.916 285.727Z" fill="#5EE9B5"/>
<path d="M171.942 183.916L100.021 195.237L122.827 172.024L109.144 141.154L171.942 183.916Z" fill="#5EE9B5"/>
<path d="M417.594 251.11L460.436 239.381L450.174 258.685L462.065 283.608L417.594 251.11Z" fill="#5EE9B5"/>
<path d="M174.467 227.653L115.579 263.736L125.76 232.052L99.7773 204.277L174.467 227.653Z" fill="#5EE9B5"/>
<path d="M411.73 214.621L443.985 188.883L441.623 211.689L459.542 232.621L411.73 214.621Z" fill="#5EE9B5"/>
<path d="M194.748 271.473L158.422 327.184L154.023 292.324L119.244 273.102L194.748 271.473Z" fill="#5EE9B5"/>
<path d="M394.463 179.434L413.196 142.211L418.816 166.646L440.889 182.203L394.463 179.434Z" fill="#5EE9B5"/>
<path d="M229.77 308.207L220.566 374.019L203.136 342.09L165.506 335.004L229.77 308.207Z" fill="#5EE9B5"/>
<path d="M367.34 148.565L370.353 102.871L383.956 127.062L408.391 136.184L367.34 148.565Z" fill="#5EE9B5"/>
<path d="M273.592 332.316L290.045 397.395L263.818 373.367L229.527 379.15L273.592 332.316Z" fill="#5EE9B5"/>
<path d="M332.561 124.946L318.145 74.3652L339.24 96.1938L364.001 97.9857L332.561 124.946Z" fill="#5EE9B5"/>
<path d="M312.687 286.623L339.973 328.488L317.411 317.33L297.619 328.244L312.687 286.623Z" fill="#5EE9B5"/>
<path d="M260.153 162.656L213.727 136.266L238.65 137.162L247.528 120.221L260.153 162.656Z" fill="#5EE9B5"/>
<path d="M349.99 277.256L391.204 299.166L370.434 301.528L363.674 321.239L349.99 277.256Z" fill="#5EE9B5"/>
<path d="M235.963 189.615L183.916 189.859L202.568 176.176L196.785 153.451L235.963 189.615Z" fill="#5EE9B5"/>
<path d="M369.377 248.749L408.717 246.387L396.418 259.5L402.69 280.351L369.377 248.749Z" fill="#5EE9B5"/>
<path d="M237.182 229.933L200.774 259.662L204.439 235.96L184.158 216.982L237.182 229.933Z" fill="#5EE9B5"/>
<path d="M365.957 212.014L391.125 188.312L390.229 207.453L406.03 223.417L365.957 212.014Z" fill="#5EE9B5"/>
<path d="M264.631 267.236L258.848 314.07L246.061 290.857L219.508 284.83L264.631 267.236Z" fill="#5EE9B5"/>
<path d="M341.928 178.62L345.023 140.908L355.937 160.538L376.137 167.461L341.928 178.62Z" fill="#5EE9B5"/>
</svg>
